<?xml version="1.0" encoding="UTF-8" standalone="no"?>
<!-- Created with Inkscape (http://www.inkscape.org/) -->

<svg
   width="127.72551mm"
   height="95.75473mm"
   viewBox="0 0 127.72551 95.75473"
   version="1.1"
   id="svg5"
   xml:space="preserve"
   inkscape:export-filename="filmCatering.svg"
   inkscape:export-xdpi="96"
   inkscape:export-ydpi="96"
   xmlns:inkscape="http://www.inkscape.org/namespaces/inkscape"
   xmlns:sodipodi="http://sodipodi.sourceforge.net/DTD/sodipodi-0.dtd"
   xmlns="http://www.w3.org/2000/svg"
   xmlns:svg="http://www.w3.org/2000/svg"><sodipodi:namedview
     id="namedview7"
     pagecolor="#ffffff"
     bordercolor="#000000"
     borderopacity="0.25"
     inkscape:showpageshadow="2"
     inkscape:pageopacity="0.0"
     inkscape:pagecheckerboard="0"
     inkscape:deskcolor="#d1d1d1"
     inkscape:document-units="mm"
     showgrid="false" /><defs
     id="defs2" /><g
     inkscape:label="Capa 1"
     inkscape:groupmode="layer"
     id="layer1"
     transform="translate(-43.114156,-84.8327)"><path
       d="m 101.1608,180.35423 c 1.19007,-0.0806 2.98169,-0.18824 3.98137,-0.23929 1.92955,-0.0986 2.21025,-0.19554 2.94151,-1.01636 0.40821,-0.4582 0.80486,-1.83301 0.6961,-2.41272 -0.24288,-1.29466 -0.66566,-1.66704 -3.4325,-3.02326 -1.18927,-0.58294 -6.217262,-3.07896 -11.173312,-5.5467 -9.69828,-4.82902 -9.54972,-4.73844 -9.71184,-5.92125 -0.0878,-0.64031 0.14991,-1.78094 0.37109,-1.78094 0.0738,0 0.13422,-0.0615 0.13422,-0.13665 0,-0.0752 0.33104,-0.46778 0.73564,-0.87249 0.40461,-0.40471 1.0171,-1.08134 1.36108,-1.50362 0.34399,-0.42229 0.67255,-0.78873 0.73014,-0.81432 0.0576,-0.0256 0.10469,-0.13553 0.10469,-0.2443 0,-0.10877 0.0494,-0.19776 0.10981,-0.19776 0.14137,0 1.14658,-1.34307 1.14658,-1.53196 0,-0.0788 0.0527,-0.14322 0.11718,-0.14322 0.0644,0 0.19076,-0.14134 0.28068,-0.31409 0.0899,-0.17276 0.28777,-0.50256 0.43967,-0.73289 0.15189,-0.23034 0.32094,-0.51303 0.37564,-0.62819 0.0547,-0.11517 0.24562,-0.42491 0.42423,-0.68832 0.36494,-0.53817 1.96322,-3.79196 2.33617,-4.756 0.13367,-0.34551 0.3053,-0.74673 0.38142,-0.89161 0.18759,-0.35708 1.37506,-3.9432 1.50752,-4.55271 0.0584,-0.26873 0.26227,-1.08538 0.45304,-1.81478 0.49946,-1.90967 1.22274,-5.74943 1.22274,-6.49132 0,-1.05165 0.8261,-2.31054 1.67517,-2.55278 0.19195,-0.0548 1.699612,-0.0996 3.350352,-0.0996 h 3.00136 l 0.51443,0.39355 c 0.52509,0.40171 1.09237,1.30778 1.08915,1.73962 -0.006,0.77785 1.26811,5.83083 1.97229,7.82311 0.23553,0.66636 0.48763,1.41346 0.56022,1.66021 0.0726,0.24676 0.19247,0.48604 0.26641,0.53173 0.0739,0.0457 0.13443,0.18089 0.13443,0.30043 0,0.24913 1.57978,3.45051 2.13931,4.33524 0.2054,0.32478 0.37345,0.62572 0.37345,0.66874 0,0.11558 0.61103,0.96668 0.73289,1.02084 0.0576,0.0256 0.1047,0.10887 0.1047,0.18507 0,0.19848 1.94956,2.69751 2.82201,3.61738 0.40576,0.4278 1.14403,1.11881 1.64061,1.53557 0.49658,0.41677 1.04542,0.88437 1.21966,1.03913 0.17424,0.15475 0.55318,0.40543 0.8421,0.55705 0.28893,0.15163 0.55673,0.3151 0.59511,0.36326 0.0747,0.0937 1.88706,1.01915 2.58257,1.31877 0.51489,0.22181 9.99686,4.8892 19.54371,9.62017 7.21616,3.57598 11.49435,5.67624 13.25403,6.50668 l 0.96941,0.4575 2.79973,-0.1695 c 1.53985,-0.0932 4.21316,-0.22861 5.94069,-0.30087 4.46166,-0.1866 5.02061,-0.34153 5.68861,-1.57675 0.38913,-0.71956 0.45569,-2.58737 0.1047,-2.93835 -0.11517,-0.11517 -0.2094,-0.24529 -0.2094,-0.28917 0,-0.27514 -1.36089,-1.00083 -9.00535,-4.80203 -15.98827,-7.95014 -18.00698,-8.96218 -18.22102,-9.1347 -0.1178,-0.095 -0.35337,-0.41179 -0.52349,-0.7041 -0.42086,-0.72312 -0.41104,-1.61911 0.0252,-2.29816 0.31012,-0.48275 2.12869,-2.95948 2.45368,-3.34169 0.0789,-0.0927 0.14337,-0.19718 0.14337,-0.23211 0,-0.0349 0.22063,-0.39852 0.4903,-0.80799 0.42344,-0.64297 1.66134,-3.07322 2.22859,-4.37521 0.10036,-0.23034 0.27822,-0.63866 0.39526,-0.90738 0.11703,-0.26873 0.33913,-0.86551 0.49355,-1.32619 0.35783,-1.06752 0.7401,-1.9117 1.26427,-2.79195 0.80895,-1.35849 2.24752,-4.39369 2.24752,-4.74198 0,-0.11236 0.0881,-0.41058 0.19569,-0.66272 0.10763,-0.25213 0.29256,-0.80393 0.41095,-1.22622 0.1184,-0.42228 0.31302,-1.1048 0.4325,-1.5167 0.11948,-0.41191 0.21817,-0.88305 0.2193,-1.04699 0.005,-0.66412 0.52761,-1.93365 1.04829,-2.5445 1.28877,-1.51192 1.52927,-2.32424 1.50476,-5.08245 -0.0274,-3.0829 -0.40309,-4.12126 -2.21106,-6.11104 -0.15878,-0.17475 -0.38869,-0.64589 -0.51091,-1.04698 -0.70936,-2.32794 -1.1581,-3.70213 -1.3094,-4.00982 -0.0944,-0.19195 -0.37724,-0.85155 -0.62858,-1.46578 -0.25134,-0.61423 -0.52645,-1.21101 -0.61137,-1.32618 -0.0849,-0.11517 -0.30477,-0.49208 -0.48856,-0.83759 -0.18378,-0.3455 -0.37025,-0.6596 -0.41436,-0.69799 -0.0441,-0.0384 -0.20095,-0.28966 -0.34852,-0.55839 -0.28568,-0.52024 -1.41431,-2.07014 -1.67729,-2.30336 -0.0866,-0.0768 -0.41315,-0.64215 -0.72571,-1.25638 -0.7617,-1.49685 -1.1794,-2.2566 -1.62941,-2.963693 -0.2067,-0.32478 -0.37581,-0.62245 -0.37581,-0.66149 0,-0.039 -0.0898,-0.18163 -0.19954,-0.31687 -0.10974,-0.13524 -0.59659,-0.77916 -1.08188,-1.43093 -0.9817,-1.31848 -3.43993,-3.85442 -4.13339,-4.26405 -0.24657,-0.14566 -0.44831,-0.3141 -0.44831,-0.37432 0,-0.0602 -0.089,-0.1095 -0.19776,-0.1095 -0.10877,0 -0.2187,-0.0471 -0.2443,-0.1047 -0.068,-0.15291 -0.91965,-0.73289 -1.07623,-0.73289 -0.0735,0 -0.15456,-0.0514 -0.18015,-0.1142 -0.0256,-0.0628 -0.54908,-0.3533 -1.16331,-0.64554 -0.61424,-0.29225 -1.27384,-0.60667 -1.46578,-0.69873 -0.19195,-0.0921 -0.72591,-0.2785 -1.18659,-0.41431 -0.46067,-0.1358 -1.04378,-0.30875 -1.2958,-0.38432 -0.7083,-0.2124 -3.34732,-0.53291 -4.35791,-0.52927 -1.41668,0.005 -3.4537,0.34465 -4.82256,0.80387 -1.34272,0.45046 -4.2215,1.8641 -4.47609,2.19802 -0.0853,0.1118 -0.22659,0.20327 -0.3141,0.20327 -0.0875,0 -0.15911,0.0493 -0.15911,0.1095 0,0.0602 -0.20225,0.22897 -0.44944,0.375 -0.2472,0.14602 -0.65762,0.47366 -0.91204,0.72808 -0.25443,0.25443 -0.49059,0.4626 -0.52479,0.4626 -0.1931,0 -2.5904,2.64585 -3.04826,3.3643 -0.14191,0.22266 -0.31466,0.40484 -0.3839,0.40484 -0.0692,0 -0.12589,0.0695 -0.12589,0.15441 0,0.0849 -0.18845,0.39236 -0.41879,0.68318 -0.23034,0.29082 -0.41879,0.56369 -0.41879,0.60638 0,0.0427 -0.18937,0.35819 -0.42081,0.70113 -0.57797,0.856393 -1.84051,3.330553 -2.4507,4.802573 -1.02694,2.47738 -1.42485,3.63055 -1.93791,5.61615 -0.12895,0.49906 -0.32455,1.227 -0.43468,1.61764 -0.11012,0.39064 -0.20022,0.81209 -0.20022,0.93655 0,0.35173 -0.46848,1.20768 -0.66309,1.21152 -0.096,0.002 -0.1745,0.0654 -0.1745,0.14115 0,0.0757 -0.23557,0.24514 -0.52349,0.37641 -0.42993,0.19603 -1.07767,0.24833 -3.62392,0.29262 -5.034982,0.0876 -5.323182,-0.0788 -6.113442,-3.52891 -0.39362,-1.71847 -1.59102,-5.6594 -2.12075,-6.9799 -0.40751,-1.01582 -1.28572,-3.00469 -1.57628,-3.56978 -0.70562,-1.372333 -0.9065,-1.745303 -0.97199,-1.804743 -0.0423,-0.0384 -0.20127,-0.32107 -0.35327,-0.62819 -0.32493,-0.6565 -0.79668,-1.37654 -0.94512,-1.44251 -0.0576,-0.0256 -0.1047,-0.10666 -0.1047,-0.18015 0,-0.15658 -0.57998,-1.00827 -0.73289,-1.07623 -0.0576,-0.0256 -0.1047,-0.13553 -0.1047,-0.2443 0,-0.10877 -0.0486,-0.19776 -0.10807,-0.19776 -0.0594,0 -0.38256,-0.37692 -0.71803,-0.83759 -0.33547,-0.46067 -0.66375,-0.83759 -0.72951,-0.83759 -0.0658,0 -0.11956,-0.0663 -0.11956,-0.14738 0,-0.14591 -2.4071,-2.59504 -3.07941,-3.13317 -0.19184,-0.15356 -0.64025,-0.51477 -0.99646,-0.80269 -0.35621,-0.28792 -0.7156,-0.52349 -0.79866,-0.52349 -0.0831,0 -0.151,-0.0586 -0.151,-0.13019 0,-0.0716 -0.12527,-0.16995 -0.27837,-0.21854 -0.1531,-0.0486 -0.35726,-0.16724 -0.45369,-0.26365 -0.26675,-0.26672 -3.5315,-1.82403 -4.68484,-2.23472 -1.4085,-0.50154 -2.70737,-0.76429 -4.91335,-0.99392 -1.63406,-0.1701 -2.14435,-0.16906 -3.83894,0.008 -1.0749,0.11219 -2.3941,0.3328 -2.93156,0.49025 -0.53745,0.15745 -1.18902,0.34096 -1.44794,0.40779 -0.25892,0.0668 -0.53847,0.18922 -0.62121,0.27197 -0.0828,0.0828 -0.23069,0.15045 -0.32875,0.15045 -0.23736,0 -1.9192,0.81912 -2.65975,1.29539 -0.32478,0.20888 -0.62245,0.37978 -0.66149,0.37978 -0.039,0 -0.18163,0.0905 -0.31687,0.20101 -0.13524,0.11055 -0.77985,0.59301 -1.43248,1.07212 -1.29605,0.95147 -3.71116,3.30704 -4.46063,4.35067 -0.25994,0.36196 -0.52479,0.65811 -0.58856,0.65811 -0.0638,0 -0.11593,0.089 -0.11593,0.19776 0,0.10877 -0.0518,0.21871 -0.1152,0.2443 -0.0634,0.0256 -0.5188,0.64653 -1.01209,1.37985 -1.11419,1.65637 -1.16301,1.73507 -1.55458,2.50563 -0.17557,0.3455 -0.35069,0.6596 -0.38915,0.69799 -0.17585,0.17552 -1.11692,2.115773 -1.11692,2.302803 0,0.11548 -0.0628,0.20996 -0.13959,0.20996 -0.0768,0 -0.1396,0.0667 -0.1396,0.14824 0,0.13956 -0.55971,1.4483 -0.84624,1.97873 -0.072,0.13332 -0.13095,0.35633 -0.13095,0.49558 0,0.13924 -0.0587,0.31284 -0.13035,0.38578 -0.27913,0.28399 -1.7083,4.95625 -2.15426,7.04272 -0.52752,2.46804 -0.6416,3.08203 -0.84297,4.53693 -0.1169,0.84457 -0.28599,2.06954 -0.37576,2.72216 -0.23874,1.73555 -0.32891,9.50979 -0.13196,11.37723 0.0891,0.84457 0.21957,2.16167 0.29,2.92689 0.0704,0.76522 0.18967,1.70751 0.26497,2.09397 0.0753,0.38646 0.2414,1.29945 0.3691,2.02885 0.1277,0.7294 0.31883,1.60435 0.42472,1.94434 0.1059,0.33999 0.19254,0.72539 0.19254,0.85645 0,0.13107 0.0986,0.57532 0.21902,0.98722 0.59623,2.03879 1.06766,3.57322 1.18828,3.86769 0.0736,0.17974 0.26234,0.7137 0.41934,1.18658 0.15701,0.47288 0.3987,1.11105 0.53709,1.41817 0.13839,0.30711 0.36251,0.80967 0.49803,1.11678 0.22857,0.51795 1.28061,2.66346 1.73163,3.53145 0.10782,0.20751 0.23441,0.4087 0.28131,0.44709 0.0469,0.0384 0.20995,0.33606 0.36234,0.66149 0.1524,0.32543 0.31658,0.59241 0.36484,0.59329 0.0483,8.4e-4 0.16583,0.19006 0.26124,0.4204 0.0954,0.23033 0.22866,0.41879 0.29613,0.41879 0.0675,0 0.12266,0.0658 0.12266,0.14633 0,0.15309 1.88693,2.70652 2.50466,3.38936 0.69325,0.76631 2.25213,2.32742 2.3241,2.32742 0.0401,0 0.24212,0.17798 0.44893,0.39551 0.57552,0.60533 2.24016,1.8245 3.58678,2.62691 0.41503,0.24731 17.0772,8.55773 25.40682,12.6719 3.9925,1.97198 7.38473,3.65561 7.53829,3.74141 0.15356,0.0858 0.46766,0.20392 0.69799,0.2625 0.49286,0.12535 4.53385,0.0316 7.608092,-0.1765 z M 90.830548,176.6702 c -3.26678,-1.61611 -19.93189,-9.89476 -26.9075,-13.36671 -2.01545,-1.00315 -3.66445,-1.87526 -3.66445,-1.93805 0,-0.0628 -0.0665,-0.11414 -0.14784,-0.11414 -0.27861,0 -2.43446,-1.73082 -3.55584,-2.85481 -1.60454,-1.60828 -3.41581,-3.7821 -3.41581,-4.09955 0,-0.0744 -0.0785,-0.1665 -0.1745,-0.20467 -0.096,-0.0382 -0.29953,-0.31187 -0.45236,-0.60823 -0.15282,-0.29635 -0.31179,-0.57023 -0.35326,-0.60862 -0.32707,-0.30274 -2.45597,-4.47059 -2.99483,-5.86311 -0.1337,-0.34551 -0.31969,-0.78524 -0.4133,-0.97719 -0.0936,-0.19194 -0.37781,-1.00859 -0.63153,-1.81477 -0.25373,-0.80618 -0.53932,-1.68564 -0.63465,-1.95437 -0.17409,-0.49074 -0.43127,-1.46341 -0.62748,-2.37317 -0.058,-0.26872 -0.17201,-0.77127 -0.25345,-1.11678 -0.5506,-2.33597 -0.9072,-4.70456 -1.22323,-8.12501 -0.25716,-2.78314 -0.21745,-8.92295 0.0729,-11.27911 0.26876,-2.18072 0.56433,-4.06506 0.78093,-4.97864 0.11221,-0.47327 0.20402,-1.00171 0.20402,-1.17431 0,-0.1726 0.0901,-0.63343 0.20023,-1.02407 0.11012,-0.39064 0.30573,-1.11858 0.43468,-1.61765 0.12895,-0.49906 0.32189,-1.19007 0.42876,-1.53557 0.38335,-1.2394 0.74778,-2.35348 0.87487,-2.67456 0.0711,-0.17974 0.26424,-0.6723 0.42907,-1.09459 0.16484,-0.42228 0.36797,-0.92483 0.4514,-1.11678 0.0834,-0.19195 0.23183,-0.53745 0.32977,-0.76779 0.45533,-1.07078 1.17755,-2.48476 1.91165,-3.742653 0.44147,-0.75648 0.80268,-1.40437 0.80268,-1.43974 0,-0.0354 0.0645,-0.14019 0.14337,-0.23292 0.0788,-0.0927 0.58452,-0.76539 1.12372,-1.49479 0.53919,-0.7294 1.04005,-1.34712 1.11301,-1.37271 0.073,-0.0256 0.13434,-0.11982 0.13639,-0.2094 0.006,-0.26926 2.91638,-3.0551 4.11836,-3.94233 1.40508,-1.03715 1.3868,-1.02607 3.06721,-1.85904 2.95088,-1.46275 5.87594,-2.00645 9.12246,-1.69568 1.70879,0.16357 3.48214,0.52852 4.05314,0.8341 0.15249,0.0816 0.39952,0.14838 0.54897,0.14838 0.23384,0 3.60014,1.60668 3.79497,1.81128 0.19172,0.20132 0.98396,0.70148 1.11113,0.70148 0.0799,0 0.14568,0.0471 0.14621,0.1047 5.5e-4,0.0576 0.23318,0.26175 0.51702,0.4537 0.28384,0.19194 0.6939,0.52174 0.91125,0.73289 0.21734,0.21114 0.42309,0.38389 0.45721,0.38389 0.17982,0 2.75642,2.82215 3.13652,3.43543 0.11376,0.18354 0.2551,0.33371 0.3141,0.33371 0.059,0 0.10726,0.0942 0.10726,0.2094 0,0.11517 0.0556,0.2094 0.12358,0.2094 0.10493,0 0.43203,0.48556 1.45406,2.15848 1.09294,1.788993 1.94643,3.505403 2.81396,5.659003 0.13918,0.34551 0.33084,0.81665 0.4259,1.04699 0.18488,0.44794 0.92359,2.75747 1.25022,3.90874 1.69927,5.98941 2.41144,13.19747 1.97232,19.9625 -0.26864,4.13866 -0.41488,5.26492 -1.151,8.86448 -0.4519,2.20973 -1.49823,5.93284 -1.74387,6.20513 -0.0658,0.0729 -0.11964,0.2406 -0.11964,0.37258 0,0.13198 -0.0892,0.4178 -0.19829,0.63517 -0.10905,0.21736 -0.30517,0.67789 -0.4358,1.0234 -0.25151,0.66517 -2.3059,4.90686 -2.43403,5.02552 -0.0414,0.0384 -0.32136,0.47812 -0.62201,0.97719 -0.98595,1.63661 -2.49577,3.53349 -4.05756,5.09778 -1.60915,1.61172 -2.387,2.30091 -2.59691,2.30091 -0.0689,0 -0.12525,0.05 -0.12525,0.11114 0,0.12931 -1.90541,1.37441 -2.72003,1.77743 -0.76734,0.37962 -0.94873,0.56023 -0.73112,0.72796 0.33345,0.25702 14.80463,7.43452 14.98938,7.43452 0.1034,0 0.188,0.0578 0.188,0.1285 0,0.0707 0.18845,0.1699 0.41879,0.22049 0.23034,0.0506 0.4188,0.14482 0.4188,0.2094 0,0.0646 0.18845,0.15881 0.41879,0.2094 0.23034,0.0506 0.41879,0.14482 0.41879,0.20939 0,0.0646 0.18846,0.15881 0.4188,0.2094 0.23033,0.0506 0.41879,0.14482 0.41879,0.2094 0,0.0646 0.18846,0.1588 0.41879,0.20939 0.23034,0.0506 0.4188,0.14482 0.4188,0.2094 0,0.0646 0.18846,0.15881 0.41879,0.2094 0.23034,0.0506 0.4188,0.14981 0.4188,0.22049 0,0.0707 0.0716,0.1285 0.1592,0.1285 0.21194,0 1.43355,0.59979 1.4927,0.73289 0.0256,0.0576 0.11462,0.1047 0.19783,0.1047 0.25885,0 7.284242,3.5478 7.463702,3.76914 0.0934,0.11517 0.15114,0.27222 0.12836,0.349 -0.0535,0.18042 -3.13858,0.43153 -7.627022,0.62081 -1.95786,0.0826 -3.74821,0.18327 -3.97854,0.22379 -0.33637,0.0592 -1.06448,-0.24576 -3.69935,-1.54926 z m 4.80471,0.82932 c 0.24238,-0.093 0.3025,-0.33406 0.0833,-0.33406 -0.0756,0 -0.44379,-0.18845 -0.81813,-0.41879 -0.59133,-0.36385 -0.81291,-0.41879 -1.68891,-0.41879 -0.62163,0 -0.99012,0.0545 -0.96093,0.14202 0.026,0.0781 0.4553,0.3562 0.95392,0.61797 0.88636,0.46534 1.86079,0.63036 2.43073,0.41165 z m 8.364472,-0.56843 c 0.18724,-0.0521 0.006,-0.19947 -0.67157,-0.54665 -0.7924,-0.40593 -1.06941,-0.47536 -1.89664,-0.47536 -0.53279,0 -0.96871,0.058 -0.96871,0.12894 0,0.0709 0.45544,0.35041 1.01208,0.6211 1.00882,0.49057 1.53507,0.54726 2.52484,0.27197 z m -12.475232,-1.57495 c 0.24463,-0.15471 0.2897,-0.11673 -0.80069,-0.67471 -0.74447,-0.38097 -1.0237,-0.44752 -1.87759,-0.44752 -1.15827,0 -1.14199,0.0672 0.1873,0.77322 0.9143,0.48561 2.02821,0.64168 2.49098,0.34901 z m 8.28304,-0.56108 c 0.0619,-0.0562 -0.28466,-0.29966 -0.77009,-0.54105 -0.72654,-0.36129 -1.04881,-0.4389 -1.82259,-0.4389 -0.51699,0 -0.93999,0.058 -0.93999,0.12894 0,0.0709 0.45544,0.34965 1.01209,0.61941 0.87538,0.42423 1.10636,0.47989 1.71007,0.41211 0.3839,-0.0431 0.74862,-0.12433 0.81051,-0.18051 z m -12.47098,-1.53289 c 0.24463,-0.15471 0.2897,-0.11673 -0.80069,-0.67471 -0.73649,-0.37689 -1.02774,-0.44752 -1.84529,-0.44752 -1.19302,0 -1.18448,0.16837 0.0398,0.78423 0.89584,0.45063 2.16732,0.61554 2.60616,0.338 z m 8.27478,-0.55283 c 0.0574,-0.0516 -0.28816,-0.29514 -0.76779,-0.5411 -0.72723,-0.37294 -1.02852,-0.4472 -1.81433,-0.44715 -1.24615,7e-5 -1.22581,0.22386 0.0717,0.78921 0.83575,0.36415 1.13071,0.42744 1.70817,0.36655 0.3839,-0.0405 0.74491,-0.11586 0.80225,-0.16751 z m -12.46272,-1.54114 c 0.24464,-0.15471 0.28971,-0.11673 -0.80068,-0.67471 -0.74052,-0.37894 -1.02574,-0.44752 -1.86131,-0.44752 -0.58763,0 -0.96796,0.0557 -0.94024,0.1378 0.0256,0.0758 0.45485,0.35051 0.95391,0.61049 0.93724,0.48824 2.18827,0.66489 2.64832,0.37394 z m 8.27478,-0.55139 c 0.0573,-0.0524 -0.28816,-0.29658 -0.76779,-0.54254 -0.72723,-0.37294 -1.02852,-0.44719 -1.81433,-0.44715 -1.22393,7e-5 -1.22305,0.21208 0.003,0.7965 0.81839,0.39 1.03755,0.43725 1.70675,0.36799 0.42228,-0.0437 0.8147,-0.12237 0.87204,-0.1748 z m -12.49617,-1.56637 c 0.11753,-0.11753 -0.0807,-0.27817 -0.77476,-0.62777 -0.78672,-0.39627 -1.08204,-0.46988 -1.88664,-0.47024 -0.54481,-2.8e-4 -0.93396,0.0567 -0.90738,0.13272 0.0256,0.0732 0.45485,0.35106 0.95392,0.61738 0.7066,0.37707 1.07882,0.48661 1.68215,0.49503 0.42612,0.006 0.84585,-0.0603 0.93271,-0.14712 z m 8.30824,-0.5276 c 0.0573,-0.0524 -0.28817,-0.29657 -0.76779,-0.54254 -0.74373,-0.3814 -1.02034,-0.4472 -1.87976,-0.44715 -1.25141,7e-5 -1.23614,0.17274 0.0704,0.7965 0.81714,0.3901 1.03569,0.43727 1.70507,0.36799 0.42228,-0.0437 0.8147,-0.12237 0.87204,-0.1748 z m -12.46041,-1.61675 c 0.10325,-0.0638 -0.19764,-0.28353 -0.78812,-0.57551 -0.80002,-0.39558 -1.10815,-0.4723 -1.89741,-0.47241 -0.51826,-8e-5 -0.94229,0.0561 -0.94229,0.12483 0,0.0687 0.3298,0.2952 0.73289,0.50328 0.40309,0.20807 0.79571,0.44045 0.87249,0.51641 0.15093,0.14931 1.74796,0.073 2.02244,-0.0966 z m 8.27247,-0.47722 c 0.12287,-0.11235 -1.51253,-0.96256 -1.91904,-0.99767 -0.15355,-0.0133 -0.60702,-0.0169 -1.0077,-0.008 -0.9562,0.0211 -0.86521,0.23256 0.34963,0.81252 0.81713,0.3901 1.03569,0.43727 1.70506,0.36799 0.42228,-0.0437 0.81471,-0.12237 0.87205,-0.1748 z m -12.65637,-1.55247 0.37887,-0.14405 -0.49904,-0.25443 c -0.31461,-0.16039 -0.94523,-0.28226 -1.7064,-0.32974 -1.12961,-0.0705 -1.19053,-0.0606 -0.94587,0.15417 0.75758,0.66486 1.9074,0.90293 2.77244,0.57405 z m 8.17426,-0.41435 c 0.40977,0 0.30511,-0.19237 -0.26378,-0.48483 -0.28792,-0.14802 -0.61772,-0.34496 -0.73289,-0.43763 -0.23464,-0.18881 -0.57378,-0.2323 -1.6359,-0.20977 -0.93276,0.0198 -0.86446,0.21555 0.28419,0.81452 0.7021,0.36612 0.97743,0.43773 1.47589,0.38389 0.33703,-0.0364 0.72965,-0.0662 0.87249,-0.0662 z m -12.3739,-5.65344 c 0.91435,-0.0985 1.91341,-0.37809 2.80724,-0.78567 0.31553,-0.14387 0.64533,-0.26159 0.73289,-0.26159 0.0876,0 0.15921,-0.0628 0.15921,-0.1396 0,-0.0768 0.0688,-0.1396 0.1528,-0.1396 0.63203,0 3.98717,-2.92249 5.00825,-4.36243 0.25861,-0.3647 0.52237,-0.66309 0.58613,-0.66309 0.0638,0 0.11593,-0.0654 0.11593,-0.14525 0,-0.16528 0.57396,-1.01723 0.73289,-1.08787 0.0576,-0.0256 0.1047,-0.10536 0.1047,-0.17727 0,-0.0719 0.17029,-0.39647 0.37843,-0.72125 0.50862,-0.79369 2.13433,-4.08763 2.13433,-4.3245 0,-0.1038 0.0584,-0.2484 0.12983,-0.32134 0.2962,-0.30258 1.55971,-4.23852 2.17122,-6.76352 1.00651,-4.15603 1.3983,-7.75453 1.3983,-12.84302 0,-4.68092 -0.25218,-7.60023 -0.99486,-11.51683 -0.40258,-2.12303 -1.24345,-5.29844 -1.67398,-6.32154 -0.10611,-0.25213 -0.19292,-0.55654 -0.19292,-0.67645 0,-0.11991 -0.0875,-0.38476 -0.19434,-0.58855 -0.10689,-0.2038 -0.30152,-0.65322 -0.4325,-0.99873 -0.13099,-0.3455 -0.42047,-1.0051 -0.6433,-1.46578 -0.22283,-0.46067 -0.40512,-0.91162 -0.40509,-1.00211 3e-5,-0.0905 -0.0785,-0.24754 -0.17444,-0.349 -0.096,-0.10145 -0.39291,-0.6242 -0.65986,-1.16165 -0.26695,-0.53745 -0.56122,-1.05608 -0.65394,-1.15251 -0.0927,-0.0964 -0.20835,-0.30059 -0.25694,-0.45369 -0.0486,-0.15311 -0.14694,-0.27837 -0.21854,-0.27837 -0.0716,0 -0.13019,-0.0676 -0.13019,-0.150203 0,-0.29392 -1.32138,-1.89643 -2.77845,-3.36959 -0.81361,-0.82259 -1.52903,-1.4979 -1.58982,-1.50068 -0.0608,-0.003 -0.23461,-0.12065 -0.38625,-0.26192 -0.15165,-0.14128 -0.44741,-0.34534 -0.65726,-0.45348 -0.20984,-0.10813 -0.41295,-0.23317 -0.45134,-0.27786 -0.0384,-0.0447 -0.38389,-0.22503 -0.76778,-0.40075 -0.3839,-0.17572 -0.82061,-0.38327 -0.97047,-0.46123 -0.14986,-0.078 -0.74664,-0.25819 -1.32618,-0.40052 -2.06149,-0.50625 -4.57404,-0.25532 -6.49881,0.64906 -1.02084,0.47966 -3.00057,1.73286 -3.00057,1.89941 0,0.0666 -0.059,0.12103 -0.13114,0.12103 -0.17113,0 -2.38162,2.21048 -2.38162,2.38162 0,0.0721 -0.0494,0.13114 -0.1098,0.13114 -0.14137,0 -1.14658,1.34306 -1.14658,1.53195 0,0.0788 -0.0644,0.14322 -0.14306,0.14322 -0.0787,0 -0.20416,0.14135 -0.27886,0.314103 -0.165,0.38159 -0.45088,0.8463 -0.58144,0.94513 -0.0528,0.04 -0.16349,0.22841 -0.24603,0.41879 -0.0825,0.19039 -0.28108,0.56602 -0.4412,0.83475 -0.6353,1.06617 -1.65976,3.25648 -1.65976,3.54857 0,0.11225 -0.0541,0.23751 -0.12016,0.27836 -0.0661,0.0408 -0.44829,1.09677 -0.84934,2.3465 -1.02205,3.18485 -1.02255,3.18654 -1.13811,3.80782 -0.0571,0.30711 -0.1669,0.80967 -0.24395,1.11678 -1.35693,5.40836 -1.69932,14.24993 -0.78116,20.1719 0.11309,0.7294 0.20461,1.47921 0.20339,1.66626 -10e-4,0.18704 0.0844,0.721 0.19029,1.18658 0.10588,0.46559 0.29798,1.34907 0.4269,1.9633 0.3505,1.67003 0.97157,3.92649 1.27886,4.64637 0.10763,0.25213 0.19569,0.54839 0.19569,0.65835 0,0.10996 0.0879,0.40622 0.1953,0.65835 0.10742,0.25214 0.30516,0.74112 0.43942,1.08662 0.13427,0.34551 0.4547,1.07565 0.71209,1.62254 0.25738,0.54688 0.46796,1.0599 0.46796,1.14004 0,0.0801 0.0471,0.16665 0.1047,0.19225 0.0576,0.0256 0.32306,0.48626 0.58994,1.02372 0.48991,0.98657 1.79638,3.0317 1.99165,3.11768 0.0581,0.0256 0.10567,0.0977 0.10567,0.16015 0,0.33349 3.64227,4.05106 3.96901,4.05106 0.10761,0 0.2166,0.0471 0.2422,0.1047 0.1343,0.30217 2.14642,1.36194 3.25567,1.71473 0.70108,0.22298 2.84122,0.54385 3.21236,0.48163 0.15356,-0.0257 0.65611,-0.0874 1.11679,-0.13702 z m -2.23357,-2.53027 c -0.76779,-0.0884 -1.67867,-0.25656 -2.02417,-0.37372 -0.75006,-0.25435 -2.67636,-1.23631 -2.93156,-1.49441 -0.0384,-0.0388 -0.32107,-0.25469 -0.62819,-0.4797 -0.64816,-0.47486 -2.00404,-1.83466 -2.44034,-2.44739 -0.35363,-0.49662 -0.1136,-0.58773 0.43224,-0.16407 0.61659,0.47855 1.8611,1.09972 2.98529,1.49002 2.06782,0.71791 4.96486,0.42876 7.32889,-0.73148 0.57584,-0.28262 1.12999,-0.59564 1.23145,-0.6956 0.10146,-0.1 0.22752,-0.18174 0.28013,-0.18174 0.0526,0 0.40933,-0.2817 0.79271,-0.626 0.38339,-0.3443 0.74418,-0.62699 0.80176,-0.62819 0.0576,-10e-4 0.1047,-0.0686 0.1047,-0.14966 0,-0.0811 0.17798,-0.31668 0.3955,-0.52349 0.41831,-0.3977 1.58369,-1.90673 1.74581,-2.2606 0.0528,-0.11517 0.28569,-0.52349 0.5176,-0.90739 0.23192,-0.38389 0.49138,-0.85503 0.57658,-1.04698 0.0852,-0.19195 0.33147,-0.72591 0.54726,-1.18658 1.05686,-2.25619 2.19103,-6.54246 2.69649,-10.19066 0.90089,-6.50212 0.7457,-13.81166 -0.42383,-19.9625 -0.30297,-1.59341 -0.96474,-4.24265 -1.20304,-4.81613 -0.0798,-0.19195 -0.193,-0.56886 -0.25164,-0.83759 -0.0586,-0.26873 -0.24303,-0.8341 -0.40976,-1.25638 -0.16673,-0.42228 -0.35341,-0.92847 -0.41484,-1.12486 -0.15892,-0.50801 -1.64161,-3.64501 -2.0052,-4.24252 -0.49933,-0.82058 -1.97594,-2.945413 -2.07452,-2.985233 -0.0634,-0.0256 -0.1152,-0.11298 -0.1152,-0.19419 0,-0.19984 -2.57159,-2.76063 -2.77227,-2.76063 -0.0876,0 -0.15929,-0.0493 -0.15929,-0.1095 0,-0.0602 -0.18846,-0.22083 -0.41879,-0.35689 -0.37261,-0.2201 -0.58723,-0.66031 -0.3141,-0.64424 0.91237,0.0537 4.50203,1.84633 4.50203,2.24828 0,0.0653 0.059,0.11873 0.13114,0.11873 0.22753,0 2.34858,2.20643 3.19597,3.324613 0.99612,1.31444 1.83902,2.72587 2.72482,4.56267 0.37027,0.76779 0.73819,1.51732 0.81761,1.66563 0.0794,0.14831 0.19485,0.43099 0.25652,0.62819 0.0617,0.1972 0.24541,0.70405 0.40831,1.12633 1.70629,4.42317 2.70189,9.52669 3.09238,15.85181 0.23278,3.77039 -0.0681,8.74345 -0.73845,12.20737 -0.0817,0.42229 -0.19745,1.05048 -0.25716,1.39599 -0.13695,0.79243 -0.48546,2.23344 -0.75964,3.14095 -0.11598,0.3839 -0.30276,1.01209 -0.41505,1.39598 -0.24134,0.825 -0.9768,2.85619 -1.16908,3.22874 -0.0741,0.14366 -0.4591,0.92081 -0.85544,1.72699 -0.39634,0.80618 -0.79617,1.59142 -0.88849,1.74497 -0.51682,0.85957 -1.55862,2.37974 -1.65826,2.4197 -0.0638,0.0256 -0.11603,0.11374 -0.11603,0.19589 0,0.26062 -2.69034,2.84148 -3.48995,3.34793 -1.44854,0.91745 -2.58954,1.35592 -4.04834,1.55572 -0.89861,0.12307 -1.52538,0.12351 -2.58256,0.002 z m -0.33876,-6.71034 c -1.09866,-0.22317 -2.35399,-1.69887 -3.06466,-3.60268 -0.65216,-1.74703 -0.77034,-2.60171 -0.77215,-5.58391 -0.002,-3.02338 0.073,-3.5691 0.70799,-5.16514 0.59151,-1.48665 0.73256,-1.71271 1.6167,-2.59098 0.51634,-0.51293 0.79566,-0.67756 1.27032,-0.74874 0.66952,-0.1004 1.80371,0.0991 1.88095,0.33081 0.027,0.0809 0.10664,0.14716 0.17702,0.14716 0.14482,0 0.68636,0.51104 0.68636,0.6477 0,0.0491 0.0872,0.15905 0.19374,0.24429 0.46417,0.37131 1.19527,2.02588 1.67227,3.78455 0.50558,1.86401 0.51384,6.37341 0.0144,7.87725 -0.1129,0.33999 -0.20528,0.70103 -0.20528,0.80231 0,0.28252 -0.84184,2.01277 -1.22934,2.52669 -0.7999,1.06086 -1.87902,1.5479 -2.94836,1.33069 z m -9.63511,-6.33408 c -0.67656,-0.28066 -1.37441,-1.26902 -1.76767,-2.50352 -1.41061,-4.4281 -0.70822,-10.17103 1.35819,-11.10504 0.45228,-0.20442 0.54753,-0.20655 0.90772,-0.0203 0.94949,0.491 1.64195,1.84227 2.21057,4.31371 0.32922,1.43094 0.29563,4.98494 -0.0603,6.37892 -0.36182,1.41708 -0.59456,1.94216 -1.10551,2.49412 -0.46437,0.50162 -1.0175,0.6601 -1.54303,0.4421 z m 14.02242,-13.64542 c -0.48617,-0.16397 -0.94125,-0.47875 -1.50067,-1.03802 -0.4416,-0.44148 -0.80291,-0.87627 -0.80291,-0.9662 0,-0.0899 -0.0834,-0.26268 -0.18527,-0.38389 -0.26259,-0.31236 -0.92184,-1.89526 -1.16738,-2.80295 -0.28066,-1.03755 -0.59991,-3.61718 -0.59603,-4.81613 0.0104,-3.20237 1.12575,-6.69705 2.63544,-8.25726 0.97457,-1.00718 1.43814,-1.22586 2.59379,-1.22356 1.30865,0.003 1.92508,0.38822 3.14096,1.9648 0.64471,0.83597 1.31157,2.69008 1.73818,4.83273 0.2911,1.46208 0.29156,4.95064 8.3e-4,6.21435 -0.41575,1.80715 -0.82372,3.05799 -1.19312,3.65823 -0.0709,0.11517 -0.17032,0.30363 -0.22098,0.4188 -0.23334,0.53049 -1.35239,1.81477 -1.58129,1.81477 -0.0768,0 -0.1396,0.0507 -0.1396,0.11273 0,0.15833 -0.95133,0.55281 -1.53558,0.63674 -0.27664,0.0397 -0.79129,-0.0319 -1.18636,-0.16514 z m -10.60965,-0.92439 c -1.33907,-0.60603 -2.16377,-2.30479 -2.16377,-4.45704 0,-3.03019 1.38532,-4.83516 3.71101,-4.83516 1.72284,0 2.31816,0.68429 2.77637,3.19128 0.26804,1.46651 0.26717,1.95382 -0.006,3.31999 -0.26156,1.30834 -0.59051,2.07793 -1.11041,2.59783 -0.36009,0.36009 -0.45715,0.38323 -1.58601,0.3781 -0.70241,-0.003 -1.3766,-0.0843 -1.62124,-0.195 z m -0.24972,-2.28443 c 0.62805,-0.39913 0.84393,-3.18786 0.32546,-4.20415 -0.32364,-0.6344 -0.6017,-0.77809 -0.88228,-0.45594 -0.46723,0.53645 -0.56527,0.94804 -0.56026,2.35203 0.004,1.21766 0.0494,1.49362 0.31343,1.92087 0.30932,0.5005 0.48908,0.5871 0.80365,0.38719 z m -6.10199,0.15137 c -1.37277,-0.5303 -2.09943,-4.61611 -1.40981,-7.92693 0.26164,-1.25611 0.36662,-1.57801 0.87514,-2.68334 0.37981,-0.82556 1.13968,-1.57439 1.5976,-1.57439 0.55204,0 1.2274,0.80293 1.61172,1.91618 0.29506,0.85465 0.32646,1.18719 0.32658,3.45834 1.3e-4,2.55112 -0.1315,3.42824 -0.71545,4.76742 -0.10549,0.24194 -0.19181,0.48006 -0.19181,0.52915 0,0.10222 -0.5262,0.8612 -0.83759,1.20811 -0.23311,0.25972 -0.9338,0.43008 -1.25638,0.30546 z m 6.53902,-12.35954 c -0.56146,-0.54993 -0.87931,-1.06529 -1.3128,-2.12849 -0.76542,-1.87729 -0.92771,-5.78817 -0.33672,-8.11417 0.49427,-1.94532 0.71182,-2.45691 1.50051,-3.52859 0.62083,-0.843603 1.1335,-1.130453 2.02042,-1.130453 0.68994,0 0.75699,0.0338 1.3577,0.68408 0.95704,1.036063 1.28229,1.818223 1.68919,4.062253 0.54762,3.02011 0.15443,6.2489 -1.0455,8.58527 -0.7765,1.51194 -1.56966,2.16377 -2.6329,2.16377 -0.55763,0 -0.70664,-0.0713 -1.2399,-0.59367 z m 29.68987,33.57155 c 0.2704,-0.19417 0.60913,-0.83703 0.65191,-1.23719 l 0.0429,-0.40095 -2.90052,-0.0377 c -2.88639,-0.0376 -3.45119,0.0344 -3.45119,0.44 0,0.10067 -0.10232,0.38814 -0.22738,0.63883 -0.19088,0.38264 -0.19648,0.47535 -0.0349,0.5777 0.23231,0.14714 5.7163,0.16507 5.91922,0.0194 z m 2.0961,-5.30472 c 0.25516,-0.18053 1.12203,-3.27968 0.98113,-3.50766 -0.0652,-0.10545 -1.05933,-0.15465 -3.12491,-0.15465 -3.42009,0 -3.26023,-0.0528 -3.50537,1.15862 -0.0653,0.32249 -0.22348,0.97906 -0.35161,1.45903 -0.12812,0.47998 -0.19418,0.93541 -0.14679,1.01209 0.10011,0.16197 5.92107,0.19281 6.14755,0.0326 z m 1.59171,-6.72539 c 0.11981,-0.0758 0.24048,-0.48403 0.29854,-1.00994 0.0536,-0.4855 0.14395,-1.21252 0.20079,-1.6156 l 0.10334,-0.73289 h -3.29854 -3.29853 v 0.61906 c 0,0.34049 -0.0957,1.074 -0.21266,1.63002 -0.17098,0.81278 -0.17782,1.03307 -0.0349,1.12377 0.24582,0.15602 5.99359,0.14274 6.24196,-0.0144 z m 0.76468,-10.42306 c 0.26901,-0.10323 0.28255,-0.75371 0.0796,-3.82401 -0.24386,-3.68898 -0.94818,-8.20987 -1.61229,-10.34898 -0.11047,-0.35581 -0.20085,-0.77763 -0.20085,-0.93738 0,-0.15974 -0.12151,-0.35547 -0.27002,-0.43495 -0.36256,-0.19404 -6.24298,-0.19568 -6.36282,-0.002 -0.0485,0.0785 0.003,0.43971 0.11479,0.80268 0.1942,0.63133 0.41464,1.59878 0.85016,3.73111 0.45442,2.2249 0.88742,6.0638 1.01884,9.03281 0.0703,1.58826 0.1226,1.92347 0.3078,1.97308 0.35364,0.0947 5.82986,0.10141 6.07481,0.007 z m 64.086872,47.29397 c -0.15356,-0.0522 -3.67143,-1.78448 -7.81748,-3.84949 -11.60815,-5.78161 -24.23176,-12.02823 -24.81827,-12.28097 -0.29053,-0.12519 -0.58536,-0.22763 -0.65519,-0.22763 -0.21707,0 -3.21392,-1.83528 -3.21392,-1.96822 0,-0.0692 -0.075,-0.12575 -0.16674,-0.12575 -0.17036,0 -3.6024,-3.39755 -3.6024,-3.56621 0,-0.0511 -0.17963,-0.32186 -0.39918,-0.60164 -0.61522,-0.78399 -1.69479,-2.39667 -1.69479,-2.5317 0,-0.0664 -0.0804,-0.20381 -0.1786,-0.30527 -0.21001,-0.21691 -1.91537,-3.65353 -1.91537,-3.85983 0,-0.0775 -0.088,-0.3188 -0.19566,-0.53616 -0.38747,-0.78262 -0.64193,-1.45628 -0.64193,-1.69945 0,-0.13628 -0.0922,-0.36972 -0.20496,-0.51875 -0.11272,-0.14904 -0.20695,-0.37673 -0.20939,-0.50597 -0.002,-0.12925 -0.18554,-0.82026 -0.40688,-1.53558 -0.72156,-2.33192 -1.66252,-7.30814 -1.45357,-7.6872 0.0317,-0.0576 0.3681,-0.10469 0.74746,-0.10469 0.65942,0 0.68975,0.0169 0.68964,0.38389 -2.7e-4,1.19509 1.33736,7.19506 1.89958,8.52022 0.10698,0.25213 0.1945,0.56937 0.1945,0.70497 0,0.13559 0.0503,0.30621 0.1117,0.37915 0.0614,0.0729 0.25752,0.50954 0.43574,0.97021 0.27101,0.70051 1.03759,2.30473 1.9521,4.0852 0.1079,0.21006 0.24924,0.40287 0.3141,0.42846 0.0648,0.0256 0.11792,0.10667 0.11792,0.18016 0,0.15658 0.57998,1.00827 0.73289,1.07623 0.0576,0.0256 0.1047,0.0976 0.1047,0.16014 0,0.0625 0.15197,0.29282 0.33772,0.51186 0.18575,0.21904 0.59649,0.70324 0.91274,1.07601 0.64684,0.76243 2.12961,2.0444 2.36462,2.0444 0.0847,0 0.15406,0.0484 0.15406,0.10764 0,0.14195 1.8361,1.04425 2.72216,1.33773 1.0255,0.33966 3.53251,0.31608 4.6591,-0.0438 1.00013,-0.3195 2.66979,-1.1255 2.66979,-1.2888 0,-0.062 0.0564,-0.11274 0.12524,-0.11274 0.12923,0 0.57996,-0.35928 1.66378,-1.32618 0.34424,-0.30712 1.05651,-1.12377 1.58281,-1.81478 0.52629,-0.69101 1.00692,-1.3192 1.06804,-1.39598 0.0611,-0.0768 0.15578,-0.23382 0.21034,-0.34899 0.0546,-0.11517 0.21975,-0.39785 0.3671,-0.62819 0.41567,-0.64978 1.68339,-3.25585 1.68339,-3.46057 0,-0.10061 0.0584,-0.24262 0.12983,-0.31556 0.14443,-0.14753 0.34911,-0.69816 1.06119,-2.85477 0.26619,-0.80618 0.48402,-1.54821 0.48407,-1.64895 5e-5,-0.10074 0.088,-0.47765 0.1954,-0.83759 0.25244,-0.84583 0.58386,-2.42269 0.8417,-4.00477 0.89431,-5.48729 0.72498,-12.92435 -0.41479,-18.21753 -0.51184,-2.37702 -1.15407,-4.7605 -1.33344,-4.94875 -0.0695,-0.0729 -0.12637,-0.24356 -0.12637,-0.37916 0,-0.13559 -0.089,-0.45283 -0.19786,-0.70497 -0.10883,-0.25213 -0.42718,-1.01319 -0.70745,-1.69123 -0.58175,-1.4074 -1.4486,-3.09569 -2.04056,-3.97422 -0.22247,-0.33016 -0.40448,-0.65996 -0.40448,-0.73289 0,-0.0729 -0.0545,-0.1326 -0.12105,-0.1326 -0.0666,0 -0.27942,-0.23557 -0.47299,-0.52349 -0.19357,-0.28792 -0.53172,-0.72199 -0.75144,-0.9646 -0.21972,-0.24261 -0.53304,-0.588113 -0.69626,-0.767793 -1.88114,-2.07076 -4.76523,-3.46683 -7.16332,-3.46747 -0.77514,-1.4e-4 -2.17778,0.24907 -2.73056,0.48527 -1.29282,0.5524 -1.88458,0.84867 -1.88458,0.9435 0,0.0587 -0.0644,0.10665 -0.14322,0.10665 -0.18889,0 -1.53195,1.00521 -1.53195,1.14658 0,0.0604 -0.0682,0.1098 -0.15151,0.1098 -0.0833,0 -0.35031,0.22551 -0.59329,0.50113 -0.24298,0.27562 -0.68271,0.762473 -0.97718,1.081883 -0.29447,0.31942 -0.63781,0.75351 -0.76299,0.96465 -0.12517,0.21114 -0.27686,0.38389 -0.33709,0.38389 -0.0602,0 -0.1095,0.0573 -0.1095,0.12742 0,0.0701 -0.21502,0.45391 -0.47783,0.85297 -0.43668,0.66306 -1.82466,3.38504 -2.24064,4.39413 -0.095,0.23034 -0.27597,0.6565 -0.40226,0.94703 -0.12629,0.29052 -0.22962,0.61819 -0.22962,0.72815 0,0.10996 -0.0866,0.40622 -0.19242,0.65835 -0.17862,0.42555 -0.37165,1.06632 -0.85297,2.8316 -0.10468,0.38389 -0.3097,1.26336 -0.45562,1.95437 l -0.2653,1.25638 h -0.68732 c -0.7918,0 -0.78085,0.0364 -0.50352,-1.67518 0.21082,-1.30109 0.93903,-3.9928 1.49177,-5.51411 0.42757,-1.17679 0.66317,-1.7712 0.8483,-2.14019 0.10906,-0.21736 0.19829,-0.46021 0.19829,-0.53967 0,-0.19356 1.66859,-3.51806 2.1393,-4.26237 0.20541,-0.32478 0.37346,-0.62582 0.37346,-0.66898 0,-0.0432 0.063,-0.15434 0.13991,-0.24707 0.077,-0.0927 0.58632,-0.761333 1.13192,-1.485763 0.54561,-0.72444 1.15795,-1.48599 1.36077,-1.69235 0.20282,-0.20635 0.56756,-0.60303 0.81054,-0.88151 0.24298,-0.27848 0.48155,-0.50632 0.53015,-0.50632 0.0486,0 0.22673,-0.14403 0.39581,-0.32006 0.38677,-0.40265 1.56469,-1.35512 1.67589,-1.35512 0.0458,0 0.35345,-0.17884 0.68361,-0.39742 0.73516,-0.48672 1.2661,-0.77263 1.99627,-1.07499 0.30712,-0.12717 0.68403,-0.28836 0.83759,-0.35818 1.82394,-0.82939 5.6516,-0.98644 8.37588,-0.34366 3.0139,0.71112 5.61739,2.25908 8.23627,4.89704 0.86126,0.86753 1.46578,1.59286 1.46578,1.7587 0,0.0689 0.0543,0.12525 0.12061,0.12525 0.0663,0 0.30174,0.26698 0.5231,0.59329 0.22137,0.32631 0.43866,0.624703 0.48287,0.663093 0.0442,0.0384 0.12537,0.16403 0.18036,0.27919 0.10217,0.21395 0.18347,0.35015 0.79172,1.32618 0.19139,0.30712 0.66125,1.18659 1.04413,1.95438 0.38289,0.76778 0.76556,1.45879 0.85038,1.53557 0.27215,0.24634 1.80132,2.34978 2.2327,3.07116 0.44761,0.74853 1.54632,2.99298 1.9134,3.90874 0.36582,0.91258 1.0236,3.1306 1.28338,4.32754 0.22858,1.05311 0.50481,1.60537 0.80299,1.60537 0.31044,0 0.94783,0.61134 1.20484,1.15561 0.82132,1.7393 0.83019,5.05424 0.0165,6.18513 -0.11517,0.16008 -0.47616,0.46668 -0.80222,0.68133 -0.63936,0.42093 -0.78357,0.75053 -0.94884,2.16858 -0.12625,1.08333 -0.79645,3.813 -1.12365,4.57657 -0.10804,0.25213 -0.19644,0.57822 -0.19644,0.72465 0,0.14642 -0.0559,0.30074 -0.12414,0.34293 -0.0683,0.0422 -0.16442,0.23727 -0.21367,0.43349 -0.2068,0.82394 -2.0436,4.3135 -2.45889,4.67141 -0.0446,0.0384 -0.22326,0.50953 -0.39714,1.04698 -0.33051,1.02158 -0.88325,2.49609 -1.20359,3.21075 -0.44615,0.99535 -1.54261,3.21669 -1.61928,3.28056 -0.0461,0.0384 -0.16493,0.22684 -0.26408,0.41879 -0.29702,0.57502 -1.84862,2.85815 -1.97645,2.90829 -0.0652,0.0256 -0.11864,0.10221 -0.11864,0.17026 0,0.14461 -1.13788,1.41439 -2.22764,2.48586 -0.86039,0.84593 -2.84423,2.39267 -3.06884,2.39267 -0.0813,0 -0.14784,0.11524 -0.14784,0.25609 0,0.19595 0.87697,0.69009 3.73425,2.10411 2.05383,1.01641 3.82847,1.90668 3.94364,1.97837 0.11517,0.0717 0.30362,0.16828 0.41879,0.21464 0.11517,0.0464 5.07788,2.50255 11.02824,5.4582 5.95036,2.95564 11.33962,5.63258 11.97614,5.94874 0.93662,0.46522 1.14958,0.62878 1.11678,0.85772 -0.032,0.22335 -0.15803,0.28988 -0.59891,0.31616 -0.30711,0.0183 -2.00323,0.12549 -3.76914,0.23819 -4.00702,0.25573 -7.72948,0.36711 -8.09668,0.24225 z m 2.19823,-0.71067 c 0.1232,-0.11265 -1.51388,-0.97367 -1.91903,-1.00931 -0.65116,-0.0573 -1.60538,0.0292 -1.60538,0.14554 0,0.0692 0.42403,0.35061 0.94229,0.6253 0.85228,0.45174 1.01562,0.49154 1.71007,0.41662 0.42228,-0.0455 0.81471,-0.12572 0.87205,-0.17815 z m 8.11188,-0.49377 c -0.0302,-0.19872 -1.44241,-0.91694 -1.85409,-0.94299 -0.19764,-0.0125 -0.67029,-0.0112 -1.05035,0.003 -0.82435,0.0305 -0.7529,0.15158 0.43287,0.73381 0.66293,0.32551 0.9741,0.39508 1.65412,0.36982 0.46067,-0.0171 0.82853,-0.0907 0.81745,-0.16344 z m -12.29982,-1.6002 c 0.12287,-0.11235 -1.51253,-0.96256 -1.91903,-0.99767 -0.15356,-0.0133 -0.60703,-0.0169 -1.00771,-0.008 -0.9562,0.0211 -0.8652,0.23256 0.34963,0.81252 0.81713,0.3901 1.03569,0.43727 1.70506,0.36799 0.42229,-0.0437 0.81471,-0.12237 0.87205,-0.1748 z m 8.11188,-0.49377 c -0.0279,-0.18356 -1.37815,-0.8893 -1.76056,-0.92023 -0.82524,-0.0667 -1.78918,0.0158 -1.70851,0.14636 0.0479,0.0774 0.47559,0.32749 0.95052,0.55569 0.70518,0.33883 1.0171,0.409 1.7011,0.38271 0.46067,-0.0177 0.82853,-0.0917 0.81745,-0.16453 z m -12.3552,-1.54926 c 0.11548,-0.10588 -0.14949,-0.31204 -0.84303,-0.6559 -0.80417,-0.39872 -0.93638,-0.42484 -2.02832,-0.40075 -0.93606,0.0207 -0.86583,0.22119 0.28207,0.80549 0.76705,0.39044 0.96027,0.43222 1.70282,0.3682 0.46067,-0.0397 0.85958,-0.0924 0.88646,-0.11704 z m 8.16727,-0.54471 c -0.0111,-0.0728 -0.34957,-0.30835 -0.75221,-0.52349 -0.61658,-0.32946 -0.89859,-0.39117 -1.78766,-0.39117 -1.19493,0 -1.19472,0.0756 0.002,0.70529 0.61726,0.32479 0.89721,0.38693 1.65071,0.36641 0.49906,-0.0136 0.89833,-0.0843 0.88725,-0.15704 z m -12.43942,-1.59619 c 0.0573,-0.0546 -0.28816,-0.30058 -0.76779,-0.54654 -0.72605,-0.37234 -1.02908,-0.4472 -1.80996,-0.44716 -1.15874,7e-5 -1.14375,0.16937 0.0707,0.79793 0.7625,0.39466 0.95998,0.43958 1.63504,0.37199 0.42228,-0.0423 0.8147,-0.12159 0.87205,-0.17622 z m 8.25101,-0.50505 c -0.0113,-0.0768 -0.43592,-0.34986 -0.94353,-0.60685 -0.85354,-0.43213 -0.98676,-0.45985 -1.77201,-0.36871 -0.96315,0.11178 -0.94712,0.18143 0.17805,0.77346 0.61726,0.32479 0.89721,0.38693 1.65071,0.36641 0.51192,-0.0139 0.89841,-0.0856 0.88678,-0.16431 z m -12.43895,-1.58892 c 0.0573,-0.0546 -0.28816,-0.30058 -0.76779,-0.54654 -0.73033,-0.37453 -1.02707,-0.4472 -1.82597,-0.44715 -0.58475,3e-5 -0.93559,0.055 -0.90658,0.14208 0.026,0.0781 0.45531,0.35908 0.95393,0.62437 0.81101,0.43151 0.9875,0.47414 1.67436,0.40446 0.42228,-0.0428 0.81471,-0.12259 0.87205,-0.17722 z m 8.25102,-0.50505 c -0.0113,-0.0768 -0.43403,-0.3489 -0.93932,-0.60472 -0.85967,-0.43522 -0.97745,-0.45883 -1.83238,-0.36728 -0.75522,0.0809 -0.88591,0.13128 -0.75366,0.29063 0.088,0.10603 0.27794,0.19278 0.42209,0.19278 0.14416,0 0.26211,0.0578 0.26211,0.12851 0,0.0707 0.18773,0.16974 0.41719,0.22013 0.22946,0.0504 0.45473,0.15237 0.50061,0.2266 0.10986,0.17777 1.95014,0.0949 1.92336,-0.0866 z m -12.43896,-1.59293 c 0.0573,-0.0524 -0.28816,-0.29657 -0.76779,-0.54253 -0.7511,-0.38518 -1.01629,-0.4472 -1.91205,-0.44715 -1.19816,6e-5 -1.18536,0.0655 0.151,0.77208 0.79189,0.41869 0.97288,0.46145 1.65679,0.39148 0.42229,-0.0432 0.81471,-0.12145 0.87205,-0.17388 z m 8.25937,-0.41142 c 0.0407,-0.0659 -0.15974,-0.23808 -0.44546,-0.38269 -0.28571,-0.1446 -0.6208,-0.34392 -0.74463,-0.44292 -0.31015,-0.24797 -1.48698,-0.36666 -2.07821,-0.20961 l -0.4886,0.12979 0.97719,0.49798 c 0.78839,0.40176 1.14416,0.5008 1.84143,0.5126 0.47534,0.008 0.89756,-0.0393 0.93828,-0.10515 z m -12.51188,-1.71552 c -0.0293,-0.0881 -0.38879,-0.33935 -0.79874,-0.55839 -0.63094,-0.33713 -0.9074,-0.39827 -1.80095,-0.39827 -1.19524,0 -1.19503,0.0774 0.002,0.70219 0.58814,0.30701 0.94248,0.3908 1.69724,0.40131 0.66032,0.009 0.9375,-0.036 0.90055,-0.14684 z m 8.24458,-0.38184 c 0.13236,-0.0839 -0.1146,-0.2682 -0.83882,-0.62605 -1.03783,-0.5128 -1.71657,-0.6134 -2.48972,-0.36902 l -0.34899,0.11032 0.45369,0.18557 c 0.24953,0.10206 0.45369,0.22963 0.45369,0.28347 0,0.0539 0.18846,0.1393 0.4188,0.18989 0.23033,0.0506 0.41879,0.14981 0.41879,0.22049 0,0.16148 1.67888,0.16612 1.93256,0.005 z m -4.19636,-2.08876 c 0.1227,-0.0778 -0.0869,-0.25317 -0.66513,-0.55625 -0.97927,-0.51332 -1.18618,-0.53477 -1.72596,-0.17889 -0.4144,0.27322 -0.41214,0.27906 0.25755,0.66488 0.32403,0.18668 1.86984,0.23759 2.13354,0.0703 z m 6.5859,-13.72856 c 0.15655,-0.16803 0.28463,-0.48213 0.28463,-0.69799 v -0.39247 h -2.49567 c -1.97145,0 -2.52981,0.0412 -2.65822,0.19587 -0.20808,0.25072 -0.42927,1.01474 -0.3242,1.11981 0.0442,0.0442 1.16672,0.0803 2.49456,0.0803 2.30383,0 2.42728,-0.014 2.6989,-0.30552 z m 1.723,-4.7549 c 0.33535,-0.97018 0.6556,-2.1369 0.6556,-2.38846 0,-0.21348 -0.24598,-0.23156 -2.68164,-0.19713 l -2.68164,0.0379 -0.0928,0.41879 c -0.051,0.23034 -0.22182,0.8875 -0.37954,1.46035 -0.15773,0.57286 -0.25615,1.09111 -0.21871,1.15169 0.0374,0.0606 1.22132,0.11013 2.63084,0.11013 h 2.56278 z m 1.21872,-5.41826 c 0.0848,-0.15841 0.19051,-0.84942 0.23497,-1.53557 l 0.0808,-1.24756 -2.56832,0.002 c -1.41258,0.001 -2.63752,0.0483 -2.72209,0.1047 -0.0846,0.0564 -0.19426,0.57371 -0.24374,1.14955 -0.0495,0.57584 -0.12896,1.21973 -0.17661,1.43088 l -0.0866,0.38388 h 2.66372 c 2.54807,0 2.67041,-0.0125 2.81787,-0.28801 z m 0.39849,-8.73928 0.33342,-0.0892 -0.0763,-2.10753 c -0.12691,-3.50351 -0.67331,-7.26692 -1.49167,-10.27402 l -0.24694,-0.90738 -2.6716,-0.0379 -2.6716,-0.0379 v 0.48252 c 0,0.26538 0.063,0.6483 0.14007,0.85093 0.16149,0.42476 0.5736,2.47303 0.88449,4.39609 0.2264,1.40045 0.45269,3.707 0.6026,6.14231 0.0497,0.8078 0.15909,1.51182 0.24362,1.56834 0.18812,0.12579 4.49069,0.13777 4.95394,0.0138 z m -19.77243,23.74311 c -0.24953,-0.10913 -0.45369,-0.26105 -0.45369,-0.33761 0,-0.0766 -0.0942,-0.1392 -0.2094,-0.1392 -0.11517,0 -0.2094,-0.0875 -0.2094,-0.19446 0,-0.10695 -0.0942,-0.23062 -0.2094,-0.27481 -0.11516,-0.0442 -0.20939,-0.17207 -0.20939,-0.28416 0,-0.1121 -0.0785,-0.28682 -0.1745,-0.38828 -0.2129,-0.22506 -0.45603,-0.85536 -0.81753,-2.1194 -0.34005,-1.18906 -0.49198,-4.42448 -0.28277,-6.02215 0.51208,-3.91058 2.32922,-6.47883 4.18965,-5.92143 1.217,0.36462 2.09454,1.84938 2.73289,4.62394 0.3331,1.44777 0.29345,4.78349 -0.0754,6.34689 -0.6286,2.66405 -1.621,4.36719 -2.78021,4.77129 -0.58221,0.20296 -0.93024,0.1889 -1.50081,-0.0606 z m -9.70532,-3.49306 c -0.60063,-0.60063 -1.01381,-1.43707 -1.36877,-2.77092 -0.37145,-1.39585 -0.3751,-4.65889 -0.007,-5.94729 0.73691,-2.57683 1.99296,-3.43345 3.23987,-2.20959 0.27027,0.26527 1.10528,1.98864 1.10528,2.28118 0,0.11122 0.0942,0.56398 0.2094,1.00615 0.28117,1.07951 0.27245,3.56848 -0.017,4.84344 -0.31778,1.39985 -0.97899,2.68445 -1.55744,3.02573 -0.67056,0.39565 -1.03185,0.34416 -1.60471,-0.2287 z m 3.24451,-13.71949 c -0.19437,-0.0633 -0.50468,-0.20278 -0.68959,-0.30988 -0.37387,-0.21655 -1.25867,-1.11322 -1.25971,-1.27661 -3.7e-4,-0.0576 -4.99478,-0.1047 -11.0987,-0.1047 H 96.274868 v -3.33087 c 0,-1.83197 -0.04,-3.62232 -0.0888,-3.97854 l -0.0888,-0.64767 h 10.774952 c 11.88161,0 11.59867,0.02 11.59867,-0.81954 0,-0.89805 0.61893,-0.85028 -11.52688,-0.88968 l -11.018182,-0.0358 -0.087,-0.97719 c -0.0478,-0.53745 -0.0598,-1.0243 -0.0267,-1.08188 0.0332,-0.0576 5.078072,-0.1047 11.210872,-0.1047 h 11.15054 l 0.39278,-0.54643 c 0.21603,-0.30054 0.68835,-0.74813 1.04959,-0.99464 0.57561,-0.39279 0.77059,-0.4482 1.57709,-0.4482 0.81312,0 0.9995,0.0541 1.60065,0.46428 1.74331,1.18962 2.78626,3.97916 2.7931,7.47061 0.002,1.2281 -0.0646,2.05225 -0.2043,2.51277 -0.11434,0.3769 -0.20856,0.79383 -0.2094,0.92651 -0.001,0.23104 -0.79542,1.9779 -1.15525,2.54172 -0.78246,1.22606 -2.47853,1.99483 -3.59699,1.63039 z m 10.82324,-1.64395 c -0.81079,-0.42745 -1.59568,-1.37013 -2.09482,-2.51599 -0.12761,-0.29293 -0.28241,-0.63024 -0.344,-0.74958 -0.0616,-0.11934 -0.2406,-0.74753 -0.39781,-1.39598 -1.27089,-5.24224 -0.38195,-10.85555 2.1013,-13.26883 0.55394,-0.53833 1.1598,-0.70747 2.05827,-0.57459 0.6886,0.10184 1.92233,1.3717 2.4712,2.54357 1.13008,2.41274 1.69943,6.34906 1.29226,8.93426 -0.0786,0.49907 -0.19969,1.2843 -0.26908,1.74498 -0.15024,0.99748 -0.59056,2.32359 -0.99657,3.00135 -0.069,0.11517 -0.19349,0.38215 -0.27667,0.59329 -0.0832,0.21115 -0.20791,0.3839 -0.27718,0.3839 -0.0693,0 -0.12594,0.0664 -0.12594,0.14747 0,0.22856 -0.85438,0.96495 -1.37813,1.18781 -0.60556,0.25766 -1.23548,0.24635 -1.76283,-0.0317 z M 114.40203,115.6489 c -0.33371,-0.0886 -0.38265,-0.45049 -0.1884,-1.39312 0.46382,-2.25072 1.42351,-3.67854 2.47248,-3.67854 0.41433,0 1.17298,0.71861 1.44437,1.36814 0.11048,0.2644 0.20087,0.52154 0.20087,0.57143 0,0.0499 -0.28183,0.39765 -0.62627,0.77282 -0.34445,0.37517 -0.70529,0.86065 -0.80187,1.07884 -0.0966,0.21819 -0.21694,0.39671 -0.26746,0.39671 -0.0505,0 -0.15437,0.17931 -0.23078,0.39848 -0.10177,0.29194 -0.25937,0.42257 -0.58949,0.48859 -0.48326,0.0967 -1.04193,0.0953 -1.41345,-0.003 z m 8.32665,-3.19458 c -0.95938,-0.49293 -1.86274,-1.93742 -2.26453,-3.62102 -0.33159,-1.38942 -0.38729,-4.09158 -0.11026,-5.3481 0.51229,-2.32354 1.37717,-3.823623 2.54236,-4.409533 0.55979,-0.28149 0.78715,-0.28154 1.37992,-2.8e-4 1.03467,0.49098 1.79766,1.672443 2.28921,3.544743 0.38469,1.46531 0.3891,4.66595 0.008,6.09692 -0.48717,1.83116 -1.30524,3.12987 -2.33685,3.70983 -0.53444,0.30046 -0.96168,0.30822 -1.50824,0.0274 z"
       style="fill:#000000;stroke-width:1"
       id="path408" /></g></svg>
